<?xml version="1.0" encoding="iso-8859-1"?>
<!-- Generator: Adobe Illustrator 20.1.0, SVG Export Plug-In . SVG Version: 6.00 Build 0)  -->
<svg xmlns="http://www.w3.org/2000/svg" xmlns:xlink="http://www.w3.org/1999/xlink" version="1.1" id="&#1057;&#1083;&#1086;&#1081;_1" x="0px" y="0px" viewBox="0 0 64 64" style="enable-background:new 0 0 64 64;" xml:space="preserve">
<linearGradient id="SVGID_1__49485" gradientUnits="userSpaceOnUse" x1="32.3663" y1="5.7862" x2="31.6996" y2="58.9529" spreadMethod="reflect">
	<stop offset="0" style="stop-color:#1A6DFF"/>
	<stop offset="1" style="stop-color:#C822FF"/>
</linearGradient>
<path style="fill:url(#SVGID_1__49485);" d="M50,12h-4v-1c0-2.757-2.243-5-5-5s-5,2.243-5,5v1h-8v-1c0-2.757-2.243-5-5-5s-5,2.243-5,5v1  h-4c-2.757,0-5,2.243-5,5v36c0,2.757,2.243,5,5,5h36c2.757,0,5-2.243,5-5V17C55,14.243,52.757,12,50,12z M38,11c0-1.654,1.346-3,3-3  s3,1.346,3,3v4c0,0.552-0.448,1-1,1h-4c-0.552,0-1-0.448-1-1V11z M20,11c0-1.654,1.346-3,3-3s3,1.346,3,3v4c0,0.552-0.448,1-1,1h-4  c-0.552,0-1-0.448-1-1V11z M14,14h4v1c0,1.654,1.346,3,3,3h4c1.654,0,3-1.346,3-3v-1h8v1c0,1.654,1.346,3,3,3h4c1.654,0,3-1.346,3-3  v-1h4c1.654,0,3,1.346,3,3v5H11v-5C11,15.346,12.346,14,14,14z M15,28.414l1.376,1.376c1.172,1.172,3.076,1.172,4.248,0l2.377-2.375  l2.375,2.375c1.135,1.135,3.113,1.135,4.248,0l2.377-2.375l2.375,2.375c0.567,0.567,1.322,0.881,2.124,0.881  s1.557-0.313,2.124-0.881l2.377-2.375l2.375,2.375c1.172,1.172,3.076,1.172,4.248,0L49,28.414V48H15V28.414z M49,25.586l-2.79,2.79  c-0.381,0.379-1.039,0.379-1.42,0l-2.375-2.375c-0.779-0.781-2.051-0.781-2.83,0l-2.375,2.375c-0.391,0.391-1.029,0.391-1.42,0  l-2.375-2.375c-0.779-0.781-2.051-0.781-2.83,0l-2.375,2.375c-0.391,0.391-1.029,0.391-1.42,0l-2.375-2.375  c-0.779-0.781-2.051-0.781-2.83,0l-2.375,2.375c-0.381,0.379-1.039,0.379-1.42,0L15,25.586V24h34V25.586z M50,56H14  c-1.654,0-3-1.346-3-3v-0.026C11.838,53.609,12.87,54,14,54h36c1.13,0,2.162-0.391,3-1.026V53C53,54.654,51.654,56,50,56z M50,52H14  c-1.654,0-3-1.346-3-3V24h2v24c0,1.103,0.897,2,2,2h34c1.103,0,2-0.897,2-2V24h2v25C53,50.654,51.654,52,50,52z"/>
<linearGradient id="SVGID_2__49485" gradientUnits="userSpaceOnUse" x1="43.3501" y1="37.8333" x2="43.3501" y2="47.3465" spreadMethod="reflect">
	<stop offset="0" style="stop-color:#6DC7FF"/>
	<stop offset="1" style="stop-color:#E6ABFF"/>
</linearGradient>
<path style="fill:url(#SVGID_2__49485);" d="M47,39.197V45c0,0.552-0.448,1-1,1h-5.803c-0.442,0-0.663-0.534-0.351-0.846l6.307-6.307  C46.466,38.534,47,38.755,47,39.197z"/>
</svg>
